<?xml version="1.0" encoding="UTF-8" standalone="no"?>
<!-- Created with Inkscape (http://www.inkscape.org/) -->

<svg
   xmlns:dc="http://purl.org/dc/elements/1.1/"
   xmlns:cc="http://creativecommons.org/ns#"
   xmlns:rdf="http://www.w3.org/1999/02/22-rdf-syntax-ns#"
   xmlns:svg="http://www.w3.org/2000/svg"
   xmlns="http://www.w3.org/2000/svg"
   xmlns:xlink="http://www.w3.org/1999/xlink"
   xmlns:sodipodi="http://sodipodi.sourceforge.net/DTD/sodipodi-0.dtd"
   xmlns:inkscape="http://www.inkscape.org/namespaces/inkscape"
   width="200"
   height="200"
   id="svg2"
   version="1.1"
   inkscape:version="0.48.3.1 r9886"
   sodipodi:docname="New document 1">
  <defs
     id="defs4">
    <linearGradient
       id="linearGradient3867">
      <stop
         style="stop-color:#ffffff;stop-opacity:0.73076922;"
         offset="0"
         id="stop3869" />
      <stop
         style="stop-color:#ffffff;stop-opacity:0;"
         offset="1"
         id="stop3871" />
    </linearGradient>
    <linearGradient
       inkscape:collect="always"
       xlink:href="#linearGradient3867"
       id="linearGradient3873"
       x1="177.78685"
       y1="258.38229"
       x2="335.37064"
       y2="258.38229"
       gradientUnits="userSpaceOnUse"
       gradientTransform="matrix(0.19382975,0,0,3.3096957,-362.05843,-540.32127)" />
    <linearGradient
       inkscape:collect="always"
       xlink:href="#linearGradient3867"
       id="linearGradient3877"
       gradientUnits="userSpaceOnUse"
       gradientTransform="matrix(0.07144588,0,0,0.39729946,-340.30019,165.0296)"
       x1="177.78685"
       y1="258.38229"
       x2="335.37064"
       y2="258.38229" />
    <linearGradient
       inkscape:collect="always"
       xlink:href="#linearGradient3867"
       id="linearGradient3880"
       gradientUnits="userSpaceOnUse"
       gradientTransform="matrix(0.19382975,0,0,3.3096957,-362.05843,-540.32127)"
       x1="177.78685"
       y1="258.38229"
       x2="348.26855"
       y2="258.05856" />
    <linearGradient
       inkscape:collect="always"
       xlink:href="#linearGradient3867"
       id="linearGradient3895"
       gradientUnits="userSpaceOnUse"
       gradientTransform="matrix(0.19382975,0,0,3.3096957,-362.05843,-540.32127)"
       x1="177.78685"
       y1="258.38229"
       x2="348.26855"
       y2="258.05856" />
    <linearGradient
       inkscape:collect="always"
       xlink:href="#linearGradient3867"
       id="linearGradient3898"
       gradientUnits="userSpaceOnUse"
       gradientTransform="matrix(0,-0.19382975,3.3096957,0,-753.91672,986.71531)"
       x1="177.78685"
       y1="258.38229"
       x2="348.26855"
       y2="258.05856" />
  </defs>
  <sodipodi:namedview
     id="base"
     pagecolor="#ffffff"
     bordercolor="#666666"
     borderopacity="1.0"
     inkscape:pageopacity="0.0"
     inkscape:pageshadow="2"
     inkscape:zoom="3.959798"
     inkscape:cx="94.534647"
     inkscape:cy="75.283633"
     inkscape:document-units="px"
     inkscape:current-layer="layer1"
     showgrid="false"
     width="200px"
     inkscape:window-width="2048"
     inkscape:window-height="1512"
     inkscape:window-x="0"
     inkscape:window-y="24"
     inkscape:window-maximized="1" />
  <metadata
     id="metadata7">
    <rdf:RDF>
      <cc:Work
         rdf:about="">
        <dc:format>image/svg+xml</dc:format>
        <dc:type
           rdf:resource="http://purl.org/dc/dcmitype/StillImage" />
        <dc:title></dc:title>
      </cc:Work>
    </rdf:RDF>
  </metadata>
  <g
     inkscape:label="Layer 1"
     inkscape:groupmode="layer"
     id="layer1"
     transform="translate(0,-852.3622)">
    <text
       xml:space="preserve"
       style="font-size:40px;font-style:normal;font-variant:normal;font-weight:normal;font-stretch:normal;line-height:125%;letter-spacing:0px;word-spacing:0px;fill:#000000;fill-opacity:1;stroke:none;font-family:Ubuntu;-inkscape-font-specification:Ubuntu"
       x="143.44167"
       y="175.04469"
       id="text2999"
       sodipodi:linespacing="125%"><tspan
         sodipodi:role="line"
         id="tspan3001"
         x="143.44167"
         y="175.04469"></tspan></text>
    <text
       xml:space="preserve"
       style="font-size:40px;font-style:normal;font-variant:normal;font-weight:normal;font-stretch:normal;line-height:125%;letter-spacing:0px;word-spacing:0px;fill:#000000;fill-opacity:1;stroke:none;font-family:Ubuntu;-inkscape-font-specification:Ubuntu"
       x="63.271461"
       y="972.94275"
       id="text2985"
       sodipodi:linespacing="125%"><tspan
         sodipodi:role="line"
         id="tspan2987"
         x="63.271461"
         y="972.94275"
         style="font-size:72px;font-weight:bold;-inkscape-font-specification:Ubuntu Bold">OS</tspan></text>
    <g
       style="font-size:40px;font-style:normal;font-variant:normal;font-weight:normal;font-stretch:normal;line-height:125%;letter-spacing:0px;word-spacing:0px;fill:#000000;fill-opacity:1;stroke:none;font-family:Ubuntu;-inkscape-font-specification:Ubuntu"
       id="text3039"
       transform="translate(-213.59545,624.65688)">
      <path
         d="m 258.23906,361.74986 c -0.576,-2e-5 -1.32,-0.072 -2.232,-0.216 -0.912,-0.14401 -1.68,-0.33601 -2.304,-0.576 l 0.864,-5.472 c 0.48,0.14399 1.032,0.26399 1.656,0.36 0.624,0.096 1.2,0.14399 1.728,0.144 2.304,-1e-5 3.936,-0.72001 4.896,-2.16 1.00799,-1.39201 1.51199,-3.456 1.512,-6.192 l 0,-0.11084 6.696,0 0,0.0388 c 0,4.79999 -1.10401,8.35199 -3.312,10.656 -2.16001,2.35199 -5.328,3.52798 -9.504,3.528"
         style="font-style:normal;font-weight:normal;fill:#000000;-inkscape-font-specification:Ubuntu"
         id="path3046"
         inkscape:connector-curvature="0"
         sodipodi:nodetypes="cccccccsccscc" />
    </g>
    <g
       style="font-size:40px;font-style:normal;font-variant:normal;font-weight:normal;font-stretch:normal;line-height:125%;letter-spacing:0px;word-spacing:0px;fill:#000000;fill-opacity:1;stroke:none;font-family:Ubuntu;-inkscape-font-specification:Ubuntu"
       id="text3027"
       transform="matrix(1,0,0,1.0072803,-213.59545,622.12597)">
      <path
         d="m 264.35906,347.63786 0,-36.792 6.696,0 0,36.72"
         style="font-style:normal;font-weight:normal;fill:#000000;fill-opacity:1;-inkscape-font-specification:Ubuntu"
         id="path3049"
         inkscape:connector-curvature="0"
         sodipodi:nodetypes="cccc" />
    </g>
    <g
       id="g3073"
       style="font-size:40px;font-style:normal;font-variant:normal;font-weight:normal;font-stretch:normal;line-height:125%;letter-spacing:0px;word-spacing:0px;fill:#000000;fill-opacity:1;stroke:none;font-family:Ubuntu;-inkscape-font-specification:Ubuntu"
       transform="translate(-213.59545,626.65688)">
      <path
         sodipodi:nodetypes="ccscccccc"
         inkscape:connector-curvature="0"
         id="path3075"
         style="font-style:normal;font-weight:normal;fill:#000000;-inkscape-font-specification:Ubuntu"
         d="m 267.67106,304.07782 c -1.20001,4e-5 -2.23201,-0.38396 -3.096,-1.152 -0.81601,-0.81596 -1.224,-1.89595 -1.224,-3.24 0,-1.34395 0.40799,-2.39995 1.224,-3.168 0.86399,-0.81595 1.89599,-1.22395 3.096,-1.224 1.19999,5e-5 2.20799,0.40805 3.024,1.224 0.86399,0.76805 1.29599,1.82405 1.296,3.168 -1e-5,1.34405 -0.43201,2.42404 -1.296,3.24 -0.81601,0.76804 -1.82401,1.15204 -3.024,1.152" />
      <path
         d="m 267.67106,304.07782 c -1.20001,4e-5 -2.23201,-0.38396 -3.096,-1.152 -0.81601,-0.81596 -1.224,-1.89595 -1.224,-3.24 0,-1.34395 0.40799,-2.39995 1.224,-3.168 0.86399,-0.81595 1.89599,-1.22395 3.096,-1.224 1.19999,5e-5 2.20799,0.40805 3.024,1.224 0.86399,0.76805 1.29599,1.82405 1.296,3.168 -1e-5,1.34405 -0.43201,2.42404 -1.296,3.24 -0.81601,0.76804 -1.82401,1.15204 -3.024,1.152"
         style="font-style:normal;font-weight:normal;fill:#000000;-inkscape-font-specification:Ubuntu"
         id="path3077"
         inkscape:connector-curvature="0"
         sodipodi:nodetypes="ccscccccc" />
      <path
         sodipodi:nodetypes="ccscccccc"
         inkscape:connector-curvature="0"
         id="path3079"
         style="font-style:normal;font-weight:normal;fill:#000000;-inkscape-font-specification:Ubuntu"
         d="m 267.67106,304.07782 c -1.20001,4e-5 -2.23201,-0.38396 -3.096,-1.152 -0.81601,-0.81596 -1.224,-1.89595 -1.224,-3.24 0,-1.34395 0.40799,-2.39995 1.224,-3.168 0.86399,-0.81595 1.89599,-1.22395 3.096,-1.224 1.19999,5e-5 2.20799,0.40805 3.024,1.224 0.86399,0.76805 1.29599,1.82405 1.296,3.168 -1e-5,1.34405 -0.43201,2.42404 -1.296,3.24 -0.81601,0.76804 -1.82401,1.15204 -3.024,1.152" />
    </g>
    <path
       style="fill:url(#linearGradient3898);fill-opacity:1;stroke:none"
       d="m 31.88406,957.96922 0,-22.33014 60.61594,-17.32143 75.61595,3.39286 0,28.75871 -67.7588,-1.07143 z"
       id="rect3865"
       inkscape:connector-curvature="0"
       sodipodi:nodetypes="ccccccc" />
  </g>
</svg>
